<svg width="25" height="25" viewBox="0 0 25 25" fill="none" xmlns="http://www.w3.org/2000/svg">
<path d="M21.0938 1.5625H3.90625C2.6123 1.5625 1.5625 2.6123 1.5625 3.90625V21.0938C1.5625 22.3877 2.6123 23.4375 3.90625 23.4375H21.0938C22.3877 23.4375 23.4375 22.3877 23.4375 21.0938V3.90625C23.4375 2.6123 22.3877 1.5625 21.0938 1.5625ZM6.05469 14.4531C5.73242 14.4531 5.46875 14.1895 5.46875 13.8672V11.1328C5.46875 10.8105 5.73242 10.5469 6.05469 10.5469H18.9453C19.2676 10.5469 19.5312 10.8105 19.5312 11.1328V13.8672C19.5312 14.1895 19.2676 14.4531 18.9453 14.4531H6.05469Z" fill="black"/>
</svg>
