<svg width="48" height="48" viewBox="0 0 48 48" fill="none" xmlns="http://www.w3.org/2000/svg">
<path d="M24.0094 13.2187C18.0469 13.2187 13.2375 18.0281 13.2375 23.9906C13.2375 29.9531 18.0469 34.7625 24.0094 34.7625C29.9719 34.7625 34.7813 29.9531 34.7813 23.9906C34.7813 18.0281 29.9719 13.2187 24.0094 13.2187ZM24.0094 30.9937C20.1563 30.9937 17.0063 27.8531 17.0063 23.9906C17.0063 20.1281 20.1469 16.9875 24.0094 16.9875C27.8719 16.9875 31.0125 20.1281 31.0125 23.9906C31.0125 27.8531 27.8625 30.9937 24.0094 30.9937ZM37.7344 12.7781C37.7344 14.175 36.6094 15.2906 35.2219 15.2906C33.825 15.2906 32.7094 14.1656 32.7094 12.7781C32.7094 11.3906 33.8344 10.2656 35.2219 10.2656C36.6094 10.2656 37.7344 11.3906 37.7344 12.7781ZM44.8688 15.3281C44.7094 11.9625 43.9406 8.98124 41.475 6.52499C39.0188 4.06874 36.0375 3.29999 32.6719 3.13124C29.2031 2.93436 18.8063 2.93436 15.3375 3.13124C11.9813 3.29061 9.00001 4.05936 6.53439 6.51561C4.06876 8.97186 3.30939 11.9531 3.14064 15.3187C2.94376 18.7875 2.94376 29.1844 3.14064 32.6531C3.30001 36.0187 4.06876 39 6.53439 41.4562C9.00001 43.9125 11.9719 44.6812 15.3375 44.85C18.8063 45.0469 29.2031 45.0469 32.6719 44.85C36.0375 44.6906 39.0188 43.9219 41.475 41.4562C43.9313 39 44.7 36.0187 44.8688 32.6531C45.0656 29.1844 45.0656 18.7969 44.8688 15.3281ZM40.3875 36.375C39.6563 38.2125 38.2406 39.6281 36.3938 40.3687C33.6281 41.4656 27.0656 41.2125 24.0094 41.2125C20.9531 41.2125 14.3813 41.4562 11.625 40.3687C9.78751 39.6375 8.37189 38.2219 7.63126 36.375C6.53439 33.6094 6.78751 27.0469 6.78751 23.9906C6.78751 20.9344 6.54376 14.3625 7.63126 11.6062C8.36251 9.76874 9.77814 8.35311 11.625 7.61249C14.3906 6.51561 20.9531 6.76874 24.0094 6.76874C27.0656 6.76874 33.6375 6.52499 36.3938 7.61249C38.2313 8.34374 39.6469 9.75936 40.3875 11.6062C41.4844 14.3719 41.2313 20.9344 41.2313 23.9906C41.2313 27.0469 41.4844 33.6187 40.3875 36.375Z" fill="white"/>
</svg>
