<svg width="28" height="26" viewBox="0 0 28 26" fill="none" xmlns="http://www.w3.org/2000/svg">
<path d="M25.6725 15.203L27.9705 5.09188C28.1364 4.36184 27.5815 3.66665 26.8328 3.66665H7.73928L7.29371 1.48839C7.18268 0.945452 6.70493 0.555542 6.15071 0.555542H1.16667C0.522326 0.555542 0 1.07787 0 1.72221V2.49999C0 3.14433 0.522326 3.66665 1.16667 3.66665H4.56376L7.97859 20.3614C7.16163 20.8312 6.61111 21.7122 6.61111 22.7222C6.61111 24.2257 7.82989 25.4444 9.33333 25.4444C10.8368 25.4444 12.0556 24.2257 12.0556 22.7222C12.0556 21.9603 11.7422 21.2719 11.2377 20.7778H21.4289C20.9245 21.2719 20.6111 21.9603 20.6111 22.7222C20.6111 24.2257 21.8299 25.4444 23.3333 25.4444C24.8368 25.4444 26.0556 24.2257 26.0556 22.7222C26.0556 21.6444 25.4291 20.713 24.5205 20.272L24.7887 19.0919C24.9546 18.3618 24.3997 17.6667 23.651 17.6667H10.6029L10.2847 16.1111H24.5349C25.0796 16.1111 25.5518 15.7342 25.6725 15.203Z" fill="white"/>
</svg>
