<svg width="345" height="48" viewBox="0 0 345 48" fill="none" xmlns="http://www.w3.org/2000/svg">
<path d="M85.356 10.836H89.604V36H84.996L70.74 17.64V36H66.492V10.836H70.74L85.356 29.628V10.836ZM102.238 30.24C103.39 31.584 104.95 32.256 106.918 32.256C108.886 32.256 110.446 31.584 111.598 30.24C112.75 28.896 113.326 27.072 113.326 24.768V10.836H117.574V24.948C117.574 28.572 116.578 31.368 114.586 33.336C112.594 35.28 110.038 36.252 106.918 36.252C103.798 36.252 101.242 35.28 99.2498 33.336C97.2578 31.368 96.2618 28.572 96.2618 24.948V10.836H100.51V24.768C100.51 27.072 101.086 28.896 102.238 30.24ZM142.147 16.776C140.443 15 138.343 14.112 135.847 14.112C133.351 14.112 131.239 15 129.511 16.776C127.807 18.552 126.955 20.712 126.955 23.256C126.955 25.776 127.807 27.924 129.511 29.7C131.239 31.476 133.351 32.364 135.847 32.364C138.343 32.364 140.443 31.476 142.147 29.7C143.875 27.924 144.739 25.776 144.739 23.256C144.739 20.712 143.875 18.552 142.147 16.776ZM145.279 32.544C142.735 35.016 139.591 36.252 135.847 36.252C132.103 36.252 128.959 35.016 126.415 32.544C123.871 30.048 122.599 26.952 122.599 23.256C122.599 19.536 123.871 16.44 126.415 13.968C128.959 11.472 132.103 10.224 135.847 10.224C139.591 10.224 142.735 11.472 145.279 13.968C147.823 16.44 149.095 19.536 149.095 23.256C149.095 26.952 147.823 30.048 145.279 32.544ZM165.515 36H160.763L150.647 10.836H155.399L163.139 29.628L170.879 10.836H175.631L165.515 36ZM181.361 30.276L178.841 36H174.305L185.393 10.836H189.929L201.017 36H196.481L193.961 30.276H181.361ZM192.233 26.352L187.661 15.984L183.089 26.352H192.233ZM231.869 14.148C230.645 14.148 229.637 14.4 228.845 14.904C228.053 15.408 227.657 16.176 227.657 17.208C227.657 18.216 228.053 18.996 228.845 19.548C229.637 20.076 231.317 20.652 233.885 21.276C236.477 21.9 238.421 22.776 239.717 23.904C241.037 25.032 241.697 26.7 241.697 28.908C241.697 31.092 240.869 32.868 239.213 34.236C237.557 35.604 235.385 36.288 232.697 36.288C228.761 36.288 225.269 34.932 222.221 32.22L224.885 29.016C227.429 31.224 230.069 32.328 232.805 32.328C234.173 32.328 235.253 32.04 236.045 31.464C236.861 30.864 237.269 30.084 237.269 29.124C237.269 28.14 236.885 27.384 236.117 26.856C235.373 26.304 234.077 25.812 232.229 25.38C230.381 24.924 228.977 24.516 228.017 24.156C227.057 23.772 226.205 23.28 225.461 22.68C223.973 21.552 223.229 19.824 223.229 17.496C223.229 15.168 224.069 13.38 225.749 12.132C227.453 10.86 229.553 10.224 232.049 10.224C233.657 10.224 235.253 10.488 236.837 11.016C238.421 11.544 239.789 12.288 240.941 13.248L238.673 16.452C237.929 15.78 236.921 15.228 235.649 14.796C234.377 14.364 233.117 14.148 231.869 14.148ZM256.453 14.724V36H252.205V14.724H244.573V10.836H264.085V14.724H256.453ZM285.936 16.776C284.232 15 282.132 14.112 279.636 14.112C277.14 14.112 275.028 15 273.3 16.776C271.596 18.552 270.744 20.712 270.744 23.256C270.744 25.776 271.596 27.924 273.3 29.7C275.028 31.476 277.14 32.364 279.636 32.364C282.132 32.364 284.232 31.476 285.936 29.7C287.664 27.924 288.528 25.776 288.528 23.256C288.528 20.712 287.664 18.552 285.936 16.776ZM289.068 32.544C286.524 35.016 283.38 36.252 279.636 36.252C275.892 36.252 272.748 35.016 270.204 32.544C267.66 30.048 266.388 26.952 266.388 23.256C266.388 19.536 267.66 16.44 270.204 13.968C272.748 11.472 275.892 10.224 279.636 10.224C283.38 10.224 286.524 11.472 289.068 13.968C291.612 16.44 292.884 19.536 292.884 23.256C292.884 26.952 291.612 30.048 289.068 32.544ZM318.33 19.008C318.33 23.16 316.518 25.776 312.894 26.856L319.482 36H314.082L308.07 27.54H302.49V36H298.242V10.836H307.602C311.442 10.836 314.19 11.484 315.846 12.78C317.502 14.076 318.33 16.152 318.33 19.008ZM307.782 23.688C310.182 23.688 311.814 23.316 312.678 22.572C313.542 21.828 313.974 20.64 313.974 19.008C313.974 17.352 313.53 16.224 312.642 15.624C311.754 15 310.17 14.688 307.89 14.688H302.49V23.688H307.782ZM342.109 10.836V14.832H328.681V21.492H340.741V25.272H328.681V32.004H342.541V36H324.433V10.836H342.109Z" fill="white"/>
<path d="M38 8H30L14.22 33.26L9 24L18 8H10L1 24L10 40H18L33.78 14.74L39 24L30 40H38L47 24L38 8Z" fill="white"/>
<path d="M213.083 18.3333H210.75L206.147 25.7008L204.625 23L207.25 18.3333H204.917L202.292 23L204.917 27.6666H207.25L211.852 20.2991L213.375 23L210.75 27.6666H213.083L215.708 23L213.083 18.3333Z" fill="white"/>
</svg>
